<svg width="1400" height="547" viewBox="0 0 1400 547" fill="none" xmlns="http://www.w3.org/2000/svg">
<rect width="1400" height="547" rx="5" fill="#1B2347"/>
<g clip-path="url(#clip0_109_767)">
<path fill-rule="evenodd" clip-rule="evenodd" d="M1368 273.5C1368 389.58 1286.09 486.534 1176.92 509.741C1164.64 512.359 1152.02 514.033 1139.12 514.693H1113.91C1043.15 511.061 980.444 476.959 938.63 425.263C905.094 383.779 885 330.998 885 273.5C885 140.133 993.133 32 1126.5 32C1259.87 32 1368 140.133 1368 273.5Z" fill="url(#paint0_linear_109_767)"/>
<path d="M1113.91 514.67C1043.15 511.038 980.444 476.936 938.63 425.24C957.544 432.079 977.85 438.116 995.161 440.286C1043.48 446.347 1055.09 433.187 1055.09 433.187C1055.09 433.187 1064.88 422.881 1061.67 400.877C1058.46 378.873 1063.48 368.614 1063.48 368.614C1063.48 368.614 1072.59 352.624 1061.5 337.389C1057.42 331.776 1054.5 327.201 1052.42 323.616C1048.86 317.461 1047.82 314.348 1047.82 314.348C1047.82 314.348 1064.29 317.602 1073.25 323.616C1075.87 325.385 1077.85 327.366 1078.58 329.583C1081.78 339.37 1077.54 343.191 1081.69 350.62C1085.84 358.072 1091.74 364.133 1095.82 365.949C1099.9 367.765 1104.4 367.247 1104.4 367.247C1104.4 367.247 1115.93 339.771 1121.26 334.323C1124.8 330.715 1128.06 326.116 1131.95 323.593C1133.93 322.295 1136.1 321.564 1138.53 321.777C1141.19 322.012 1142.54 322.72 1143.15 323.593C1144.19 325.078 1143.03 327.036 1142.58 327.649C1141.85 328.616 1132.84 338.05 1131.12 344.559C1129.4 351.044 1128.91 350.077 1128.06 354.488C1127.21 358.827 1125.89 365.006 1125.86 365.195C1126.1 364.865 1140.72 344.347 1145.34 340.455C1148.76 337.578 1155.13 328.64 1163.46 323.616C1166.47 321.777 1169.78 320.456 1173.27 320.126C1180.86 319.418 1181.66 321.612 1181 323.616C1180.7 324.56 1180.04 325.456 1179.61 325.975C1179.96 325.574 1180.79 324.63 1181.76 323.616C1183.41 321.918 1185.51 320.008 1186.59 320.008C1188.29 320.008 1196.21 319.913 1196.8 323.616C1196.9 324.206 1196.83 324.866 1196.5 325.644C1194.16 331.399 1187.56 334.229 1183.64 336.8C1179.73 339.37 1159.75 357.247 1154.26 365.949C1148.74 374.652 1143.86 386.892 1136.99 392.882C1130.13 398.896 1127.21 398.519 1121.08 402.198C1114.94 405.877 1102.21 415.193 1099.64 428.895C1097.07 442.621 1095.84 461.229 1114.45 475.073C1123.6 481.865 1143.36 495.331 1176.95 509.694C1164.66 512.312 1152.04 513.986 1139.14 514.646" fill="#1B2347"/>
<path d="M1113.91 514.67C1043.15 511.038 980.444 476.936 938.63 425.24C957.544 432.079 977.85 438.116 995.161 440.286C1043.48 446.347 1055.09 433.187 1055.09 433.187C1055.09 433.187 1064.88 422.881 1061.67 400.877C1058.46 378.873 1063.48 368.614 1063.48 368.614C1063.48 368.614 1072.59 352.624 1061.5 337.389C1057.42 331.776 1054.5 327.201 1052.42 323.616C1048.86 317.461 1047.82 314.348 1047.82 314.348C1047.82 314.348 1064.29 317.602 1073.25 323.616C1075.87 325.385 1077.85 327.366 1078.58 329.583C1081.78 339.37 1077.54 343.191 1081.69 350.62C1085.84 358.072 1091.74 364.133 1095.82 365.949C1099.9 367.765 1104.4 367.247 1104.4 367.247C1104.4 367.247 1115.93 339.771 1121.26 334.323C1124.8 330.715 1128.06 326.116 1131.95 323.593C1133.93 322.295 1136.1 321.564 1138.53 321.777C1141.19 322.012 1142.54 322.72 1143.15 323.593C1144.19 325.078 1143.03 327.036 1142.58 327.649C1141.85 328.616 1132.84 338.05 1131.12 344.559C1129.4 351.044 1128.91 350.077 1128.06 354.488C1127.21 358.827 1125.89 365.006 1125.86 365.195C1126.1 364.865 1140.72 344.347 1145.34 340.455C1148.76 337.578 1155.13 328.64 1163.46 323.616C1166.47 321.777 1169.78 320.456 1173.27 320.126C1180.86 319.418 1181.66 321.612 1181 323.616C1180.7 324.56 1180.04 325.456 1179.61 325.975C1179.96 325.574 1180.79 324.63 1181.76 323.616C1183.41 321.918 1185.51 320.008 1186.59 320.008C1188.29 320.008 1196.21 319.913 1196.8 323.616C1196.9 324.206 1196.83 324.866 1196.5 325.644C1194.16 331.399 1187.56 334.229 1183.64 336.8C1179.73 339.37 1159.75 357.247 1154.26 365.949C1148.74 374.652 1143.86 386.892 1136.99 392.882C1130.13 398.896 1127.21 398.519 1121.08 402.198C1114.94 405.877 1102.21 415.193 1099.64 428.895C1097.07 442.621 1095.84 461.229 1114.45 475.073C1123.6 481.865 1143.36 495.331 1176.95 509.694C1164.66 512.312 1152.04 513.986 1139.14 514.646" stroke="#1B2347" stroke-width="2.0564"/>
<path d="M1043.06 223.879H1204.28C1233.12 223.879 1256.52 246.213 1256.52 273.759C1256.52 301.305 1233.12 323.639 1204.28 323.639H1043.06C1014.22 323.639 990.821 301.305 990.821 273.759C990.821 246.213 1014.22 223.879 1043.06 223.879Z" fill="#1B2347" stroke="#1B2347" stroke-width="2.0597" stroke-miterlimit="15.1181"/>
<path d="M1046.86 303.145C1062.07 303.145 1074.4 290.527 1074.4 274.962C1074.4 259.397 1062.07 246.779 1046.86 246.779C1031.64 246.779 1019.31 259.397 1019.31 274.962C1019.31 290.527 1031.64 303.145 1046.86 303.145Z" fill="white"/>
<path d="M1046.86 294.206C1057.49 294.206 1066.1 285.59 1066.1 274.961C1066.1 264.333 1057.49 255.717 1046.86 255.717C1036.23 255.717 1027.61 264.333 1027.61 274.961C1027.61 285.59 1036.23 294.206 1046.86 294.206Z" fill="#D4DBFA"/>
<path d="M1203.6 303.145C1218.81 303.145 1231.14 290.527 1231.14 274.962C1231.14 259.397 1218.81 246.779 1203.6 246.779C1188.38 246.779 1176.05 259.397 1176.05 274.962C1176.05 290.527 1188.38 303.145 1203.6 303.145Z" fill="white"/>
<path d="M1203.6 294.206C1214.22 294.206 1222.84 285.59 1222.84 274.961C1222.84 264.333 1214.22 255.717 1203.6 255.717C1192.97 255.717 1184.35 264.333 1184.35 274.961C1184.35 285.59 1192.97 294.206 1203.6 294.206Z" fill="#D4DBFA"/>
</g>
<path d="M150.36 191.68L141.36 200.56V217H122.64V127.96H141.36V178.36L168.72 152.44H191.04L164.16 179.8L193.44 217H170.76L150.36 191.68ZM231.566 202.96C234.926 202.96 237.886 202.48 240.446 201.52C243.086 200.48 245.526 198.88 247.766 196.72L257.726 207.52C251.646 214.48 242.766 217.96 231.086 217.96C223.806 217.96 217.366 216.56 211.766 213.76C206.166 210.88 201.846 206.92 198.806 201.88C195.766 196.84 194.246 191.12 194.246 184.72C194.246 178.4 195.726 172.72 198.686 167.68C201.726 162.56 205.846 158.6 211.046 155.8C216.326 152.92 222.246 151.48 228.806 151.48C234.966 151.48 240.566 152.8 245.606 155.44C250.646 158 254.646 161.76 257.606 166.72C260.646 171.6 262.166 177.4 262.166 184.12L214.406 193.36C215.766 196.56 217.886 198.96 220.766 200.56C223.726 202.16 227.326 202.96 231.566 202.96ZM228.806 165.64C224.086 165.64 220.246 167.16 217.286 170.2C214.326 173.24 212.766 177.44 212.606 182.8L244.046 176.68C243.166 173.32 241.366 170.64 238.646 168.64C235.926 166.64 232.646 165.64 228.806 165.64ZM297.909 217.96C290.629 217.96 284.949 216.04 280.869 212.2C276.789 208.28 274.749 202.76 274.749 195.64V127.96H293.469V194.56C293.469 197.28 294.149 199.4 295.509 200.92C296.949 202.36 298.949 203.08 301.509 203.08C302.469 203.08 303.429 202.96 304.389 202.72C305.429 202.48 306.229 202.2 306.789 201.88L307.629 216.4C304.509 217.44 301.269 217.96 297.909 217.96ZM339.98 217.96C332.7 217.96 327.02 216.04 322.94 212.2C318.86 208.28 316.82 202.76 316.82 195.64V127.96H335.54V194.56C335.54 197.28 336.22 199.4 337.58 200.92C339.02 202.36 341.02 203.08 343.58 203.08C344.54 203.08 345.5 202.96 346.46 202.72C347.5 202.48 348.3 202.2 348.86 201.88L349.7 216.4C346.58 217.44 343.34 217.96 339.98 217.96ZM398.13 151.48C406.13 151.48 412.57 153.88 417.45 158.68C422.41 163.48 424.89 170.6 424.89 180.04V217H406.17V182.92C406.17 177.8 405.05 174 402.81 171.52C400.57 168.96 397.33 167.68 393.09 167.68C388.37 167.68 384.61 169.16 381.81 172.12C379.01 175 377.61 179.32 377.61 185.08V217H358.89V152.44H376.77V160C379.25 157.28 382.33 155.2 386.01 153.76C389.69 152.24 393.73 151.48 398.13 151.48ZM475.082 202.96C478.442 202.96 481.402 202.48 483.962 201.52C486.602 200.48 489.042 198.88 491.282 196.72L501.242 207.52C495.162 214.48 486.282 217.96 474.602 217.96C467.322 217.96 460.882 216.56 455.282 213.76C449.682 210.88 445.362 206.92 442.322 201.88C439.282 196.84 437.762 191.12 437.762 184.72C437.762 178.4 439.242 172.72 442.202 167.68C445.242 162.56 449.362 158.6 454.562 155.8C459.842 152.92 465.762 151.48 472.322 151.48C478.482 151.48 484.082 152.8 489.122 155.44C494.162 158 498.162 161.76 501.122 166.72C504.162 171.6 505.682 177.4 505.682 184.12L457.922 193.36C459.282 196.56 461.402 198.96 464.282 200.56C467.242 202.16 470.842 202.96 475.082 202.96ZM472.322 165.64C467.602 165.64 463.762 167.16 460.802 170.2C457.842 173.24 456.282 177.44 456.122 182.8L487.562 176.68C486.682 173.32 484.882 170.64 482.162 168.64C479.442 166.64 476.162 165.64 472.322 165.64ZM536.145 160.96C538.385 157.84 541.385 155.48 545.145 153.88C548.985 152.28 553.385 151.48 558.345 151.48V168.76C556.265 168.6 554.865 168.52 554.145 168.52C548.785 168.52 544.585 170.04 541.545 173.08C538.505 176.04 536.985 180.52 536.985 186.52V217H518.265V152.44H536.145V160.96ZM575.853 217.96C572.573 217.96 569.813 216.84 567.573 214.6C565.333 212.36 564.213 209.56 564.213 206.2C564.213 202.76 565.333 200 567.573 197.92C569.813 195.76 572.573 194.68 575.853 194.68C579.133 194.68 581.893 195.76 584.133 197.92C586.373 200 587.493 202.76 587.493 206.2C587.493 209.56 586.373 212.36 584.133 214.6C581.893 216.84 579.133 217.96 575.853 217.96Z" fill="url(#paint1_linear_109_767)"/>
<path d="M161.52 359.88C159.68 361.24 157.4 362.28 154.68 363C152.04 363.64 149.28 363.96 146.4 363.96C138.64 363.96 132.68 362 128.52 358.08C124.36 354.16 122.28 348.4 122.28 340.8V284.16H141V299.88H156.96V314.28H141V340.56C141 343.28 141.68 345.4 143.04 346.92C144.4 348.36 146.36 349.08 148.92 349.08C151.8 349.08 154.36 348.28 156.6 346.68L161.52 359.88ZM202.621 348.96C205.981 348.96 208.941 348.48 211.501 347.52C214.141 346.48 216.581 344.88 218.821 342.72L228.781 353.52C222.701 360.48 213.821 363.96 202.141 363.96C194.861 363.96 188.421 362.56 182.821 359.76C177.221 356.88 172.901 352.92 169.861 347.88C166.821 342.84 165.301 337.12 165.301 330.72C165.301 324.4 166.781 318.72 169.741 313.68C172.781 308.56 176.901 304.6 182.101 301.8C187.381 298.92 193.301 297.48 199.861 297.48C206.021 297.48 211.621 298.8 216.661 301.44C221.701 304 225.701 307.76 228.661 312.72C231.701 317.6 233.221 323.4 233.221 330.12L185.461 339.36C186.821 342.56 188.941 344.96 191.821 346.56C194.781 348.16 198.381 348.96 202.621 348.96ZM199.861 311.64C195.141 311.64 191.301 313.16 188.341 316.2C185.381 319.24 183.821 323.44 183.661 328.8L215.101 322.68C214.221 319.32 212.421 316.64 209.701 314.64C206.981 312.64 203.701 311.64 199.861 311.64ZM311.324 298.44V363H293.444V355.56C288.804 361.16 282.084 363.96 273.284 363.96C267.204 363.96 261.684 362.6 256.724 359.88C251.844 357.16 248.004 353.28 245.204 348.24C242.404 343.2 241.004 337.36 241.004 330.72C241.004 324.08 242.404 318.24 245.204 313.2C248.004 308.16 251.844 304.28 256.724 301.56C261.684 298.84 267.204 297.48 273.284 297.48C281.524 297.48 287.964 300.08 292.604 305.28V298.44H311.324ZM276.524 348.6C281.244 348.6 285.164 347 288.284 343.8C291.404 340.52 292.964 336.16 292.964 330.72C292.964 325.28 291.404 320.96 288.284 317.76C285.164 314.48 281.244 312.84 276.524 312.84C271.724 312.84 267.764 314.48 264.644 317.76C261.524 320.96 259.964 325.28 259.964 330.72C259.964 336.16 261.524 340.52 264.644 343.8C267.764 347 271.724 348.6 276.524 348.6ZM411.336 297.48C419.416 297.48 425.816 299.88 430.536 304.68C435.336 309.4 437.736 316.52 437.736 326.04V363H419.016V328.92C419.016 323.8 417.936 320 415.776 317.52C413.696 314.96 410.696 313.68 406.776 313.68C402.376 313.68 398.896 315.12 396.336 318C393.776 320.8 392.496 325 392.496 330.6V363H373.776V328.92C373.776 318.76 369.696 313.68 361.536 313.68C357.216 313.68 353.776 315.12 351.216 318C348.656 320.8 347.376 325 347.376 330.6V363H328.656V298.44H346.536V305.88C348.936 303.16 351.856 301.08 355.296 299.64C358.816 298.2 362.656 297.48 366.816 297.48C371.376 297.48 375.496 298.4 379.176 300.24C382.856 302 385.816 304.6 388.056 308.04C390.696 304.68 394.016 302.08 398.016 300.24C402.096 298.4 406.536 297.48 411.336 297.48Z" fill="#FA9646"/>
<path d="M127.192 451.4H135.172C137.244 451.4 139.073 451.82 140.66 452.66C142.247 453.481 143.479 454.639 144.356 456.132C145.233 457.607 145.672 459.296 145.672 461.2C145.672 463.104 145.233 464.803 144.356 466.296C143.479 467.771 142.247 468.928 140.66 469.768C139.073 470.589 137.244 471 135.172 471H127.192V451.4ZM135.06 469.208C136.777 469.208 138.28 468.872 139.568 468.2C140.856 467.509 141.855 466.567 142.564 465.372C143.273 464.159 143.628 462.768 143.628 461.2C143.628 459.632 143.273 458.251 142.564 457.056C141.855 455.843 140.856 454.9 139.568 454.228C138.28 453.537 136.777 453.192 135.06 453.192H129.264V469.208H135.06ZM149.905 456.272H151.893V471H149.905V456.272ZM150.913 453.052C150.502 453.052 150.157 452.912 149.877 452.632C149.597 452.352 149.457 452.016 149.457 451.624C149.457 451.251 149.597 450.924 149.877 450.644C150.157 450.364 150.502 450.224 150.913 450.224C151.323 450.224 151.669 450.364 151.949 450.644C152.229 450.905 152.369 451.223 152.369 451.596C152.369 452.007 152.229 452.352 151.949 452.632C151.669 452.912 151.323 453.052 150.913 453.052ZM163.724 469.376C164.639 469.376 165.479 469.217 166.244 468.9C167.028 468.564 167.691 468.079 168.232 467.444L169.352 468.732C168.699 469.516 167.887 470.113 166.916 470.524C165.946 470.935 164.872 471.14 163.696 471.14C162.184 471.14 160.84 470.823 159.664 470.188C158.488 469.535 157.574 468.639 156.92 467.5C156.267 466.361 155.94 465.073 155.94 463.636C155.94 462.199 156.248 460.911 156.864 459.772C157.499 458.633 158.367 457.747 159.468 457.112C160.57 456.477 161.82 456.16 163.22 456.16C164.527 456.16 165.703 456.459 166.748 457.056C167.812 457.653 168.652 458.484 169.268 459.548C169.903 460.612 170.239 461.825 170.276 463.188L158.18 465.54C158.554 466.735 159.226 467.677 160.196 468.368C161.186 469.04 162.362 469.376 163.724 469.376ZM163.22 457.868C162.194 457.868 161.27 458.111 160.448 458.596C159.646 459.063 159.011 459.725 158.544 460.584C158.096 461.424 157.872 462.395 157.872 463.496C157.872 463.776 157.882 463.981 157.9 464.112L168.288 462.096C168.064 460.864 167.495 459.856 166.58 459.072C165.666 458.269 164.546 457.868 163.22 457.868ZM185.599 471.14C184.404 471.14 183.256 470.972 182.155 470.636C181.072 470.281 180.223 469.843 179.607 469.32L180.503 467.752C181.119 468.237 181.894 468.639 182.827 468.956C183.76 469.255 184.731 469.404 185.739 469.404C187.083 469.404 188.072 469.199 188.707 468.788C189.36 468.359 189.687 467.761 189.687 466.996C189.687 466.455 189.51 466.035 189.155 465.736C188.8 465.419 188.352 465.185 187.811 465.036C187.27 464.868 186.551 464.709 185.655 464.56C184.46 464.336 183.499 464.112 182.771 463.888C182.043 463.645 181.418 463.244 180.895 462.684C180.391 462.124 180.139 461.349 180.139 460.36C180.139 459.128 180.652 458.12 181.679 457.336C182.706 456.552 184.134 456.16 185.963 456.16C186.915 456.16 187.867 456.291 188.819 456.552C189.771 456.795 190.555 457.121 191.171 457.532L190.303 459.128C189.09 458.288 187.643 457.868 185.963 457.868C184.694 457.868 183.732 458.092 183.079 458.54C182.444 458.988 182.127 459.576 182.127 460.304C182.127 460.864 182.304 461.312 182.659 461.648C183.032 461.984 183.49 462.236 184.031 462.404C184.572 462.553 185.319 462.712 186.271 462.88C187.447 463.104 188.39 463.328 189.099 463.552C189.808 463.776 190.415 464.159 190.919 464.7C191.423 465.241 191.675 465.988 191.675 466.94C191.675 468.228 191.134 469.255 190.051 470.02C188.987 470.767 187.503 471.14 185.599 471.14ZM195.35 456.272H197.338V471H195.35V456.272ZM196.358 453.052C195.947 453.052 195.602 452.912 195.322 452.632C195.042 452.352 194.902 452.016 194.902 451.624C194.902 451.251 195.042 450.924 195.322 450.644C195.602 450.364 195.947 450.224 196.358 450.224C196.769 450.224 197.114 450.364 197.394 450.644C197.674 450.905 197.814 451.223 197.814 451.596C197.814 452.007 197.674 452.352 197.394 452.632C197.114 452.912 196.769 453.052 196.358 453.052ZM221.238 456.16C223.086 456.16 224.532 456.692 225.578 457.756C226.642 458.82 227.174 460.388 227.174 462.46V471H225.186V462.656C225.186 461.125 224.812 459.959 224.066 459.156C223.338 458.353 222.302 457.952 220.958 457.952C219.427 457.952 218.223 458.428 217.346 459.38C216.468 460.313 216.03 461.611 216.03 463.272V471H214.042V462.656C214.042 461.125 213.668 459.959 212.922 459.156C212.194 458.353 211.148 457.952 209.786 457.952C208.274 457.952 207.07 458.428 206.174 459.38C205.296 460.313 204.858 461.611 204.858 463.272V471H202.87V456.272H204.774V458.96C205.296 458.064 206.024 457.373 206.958 456.888C207.891 456.403 208.964 456.16 210.178 456.16C211.41 456.16 212.474 456.421 213.37 456.944C214.284 457.467 214.966 458.241 215.414 459.268C215.955 458.297 216.73 457.541 217.738 457C218.764 456.44 219.931 456.16 221.238 456.16ZM240.153 456.16C241.534 456.16 242.785 456.477 243.905 457.112C245.025 457.728 245.902 458.605 246.537 459.744C247.172 460.883 247.489 462.18 247.489 463.636C247.489 465.111 247.172 466.417 246.537 467.556C245.902 468.695 245.025 469.581 243.905 470.216C242.804 470.832 241.553 471.14 240.153 471.14C238.958 471.14 237.876 470.897 236.905 470.412C235.953 469.908 235.169 469.18 234.553 468.228V476.432H232.565V456.272H234.469V459.184C235.066 458.213 235.85 457.467 236.821 456.944C237.81 456.421 238.921 456.16 240.153 456.16ZM240.013 469.376C241.04 469.376 241.973 469.143 242.813 468.676C243.653 468.191 244.306 467.509 244.773 466.632C245.258 465.755 245.501 464.756 245.501 463.636C245.501 462.516 245.258 461.527 244.773 460.668C244.306 459.791 243.653 459.109 242.813 458.624C241.973 458.139 241.04 457.896 240.013 457.896C238.968 457.896 238.025 458.139 237.185 458.624C236.364 459.109 235.71 459.791 235.225 460.668C234.758 461.527 234.525 462.516 234.525 463.636C234.525 464.756 234.758 465.755 235.225 466.632C235.71 467.509 236.364 468.191 237.185 468.676C238.025 469.143 238.968 469.376 240.013 469.376ZM255.686 471.14C254.36 471.14 253.334 470.767 252.606 470.02C251.896 469.273 251.542 468.237 251.542 466.912V450.224H253.53V466.744C253.53 467.621 253.735 468.293 254.146 468.76C254.556 469.208 255.172 469.432 255.994 469.432C256.516 469.432 256.964 469.348 257.338 469.18L257.478 470.832C256.899 471.037 256.302 471.14 255.686 471.14ZM266.209 469.376C267.123 469.376 267.963 469.217 268.729 468.9C269.513 468.564 270.175 468.079 270.717 467.444L271.837 468.732C271.183 469.516 270.371 470.113 269.401 470.524C268.43 470.935 267.357 471.14 266.181 471.14C264.669 471.14 263.325 470.823 262.149 470.188C260.973 469.535 260.058 468.639 259.405 467.5C258.751 466.361 258.425 465.073 258.425 463.636C258.425 462.199 258.733 460.911 259.349 459.772C259.983 458.633 260.851 457.747 261.953 457.112C263.054 456.477 264.305 456.16 265.705 456.16C267.011 456.16 268.187 456.459 269.233 457.056C270.297 457.653 271.137 458.484 271.753 459.548C272.387 460.612 272.723 461.825 272.761 463.188L260.665 465.54C261.038 466.735 261.71 467.677 262.681 468.368C263.67 469.04 264.846 469.376 266.209 469.376ZM265.705 457.868C264.678 457.868 263.754 458.111 262.933 458.596C262.13 459.063 261.495 459.725 261.029 460.584C260.581 461.424 260.357 462.395 260.357 463.496C260.357 463.776 260.366 463.981 260.385 464.112L270.773 462.096C270.549 460.864 269.979 459.856 269.065 459.072C268.15 458.269 267.03 457.868 265.705 457.868ZM296.903 460.892C298.191 461.172 299.181 461.732 299.871 462.572C300.581 463.393 300.935 464.457 300.935 465.764C300.935 467.444 300.31 468.741 299.059 469.656C297.827 470.552 295.998 471 293.571 471H284.555V451.4H293.011C295.195 451.4 296.885 451.839 298.079 452.716C299.293 453.593 299.899 454.835 299.899 456.44C299.899 457.523 299.629 458.447 299.087 459.212C298.565 459.959 297.837 460.519 296.903 460.892ZM286.627 453.108V460.22H292.871C294.458 460.22 295.681 459.921 296.539 459.324C297.398 458.708 297.827 457.821 297.827 456.664C297.827 455.507 297.398 454.629 296.539 454.032C295.681 453.416 294.458 453.108 292.871 453.108H286.627ZM293.543 469.292C295.298 469.292 296.623 468.993 297.519 468.396C298.415 467.799 298.863 466.865 298.863 465.596C298.863 463.151 297.09 461.928 293.543 461.928H286.627V469.292H293.543ZM311.265 471.14C309.846 471.14 308.567 470.823 307.429 470.188C306.29 469.535 305.394 468.639 304.741 467.5C304.087 466.361 303.761 465.073 303.761 463.636C303.761 462.199 304.087 460.911 304.741 459.772C305.394 458.633 306.29 457.747 307.429 457.112C308.567 456.477 309.846 456.16 311.265 456.16C312.683 456.16 313.962 456.477 315.101 457.112C316.239 457.747 317.126 458.633 317.761 459.772C318.414 460.911 318.741 462.199 318.741 463.636C318.741 465.073 318.414 466.361 317.761 467.5C317.126 468.639 316.239 469.535 315.101 470.188C313.962 470.823 312.683 471.14 311.265 471.14ZM311.265 469.376C312.31 469.376 313.243 469.143 314.065 468.676C314.905 468.191 315.558 467.509 316.025 466.632C316.491 465.755 316.725 464.756 316.725 463.636C316.725 462.516 316.491 461.517 316.025 460.64C315.558 459.763 314.905 459.091 314.065 458.624C313.243 458.139 312.31 457.896 311.265 457.896C310.219 457.896 309.277 458.139 308.437 458.624C307.615 459.091 306.962 459.763 306.477 460.64C306.01 461.517 305.777 462.516 305.777 463.636C305.777 464.756 306.01 465.755 306.477 466.632C306.962 467.509 307.615 468.191 308.437 468.676C309.277 469.143 310.219 469.376 311.265 469.376ZM330.303 456.16C332.151 456.16 333.617 456.701 334.699 457.784C335.801 458.848 336.351 460.407 336.351 462.46V471H334.363V462.656C334.363 461.125 333.981 459.959 333.215 459.156C332.45 458.353 331.358 457.952 329.939 457.952C328.353 457.952 327.093 458.428 326.159 459.38C325.245 460.313 324.787 461.611 324.787 463.272V471H322.799V456.272H324.703V458.988C325.245 458.092 325.991 457.401 326.943 456.916C327.914 456.412 329.034 456.16 330.303 456.16ZM341.749 456.272H343.737V471H341.749V456.272ZM342.757 453.052C342.346 453.052 342.001 452.912 341.721 452.632C341.441 452.352 341.301 452.016 341.301 451.624C341.301 451.251 341.441 450.924 341.721 450.644C342.001 450.364 342.346 450.224 342.757 450.224C343.167 450.224 343.513 450.364 343.793 450.644C344.073 450.905 344.213 451.223 344.213 451.596C344.213 452.007 344.073 452.352 343.793 452.632C343.513 452.912 343.167 453.052 342.757 453.052ZM355.568 469.376C356.483 469.376 357.323 469.217 358.088 468.9C358.872 468.564 359.535 468.079 360.076 467.444L361.196 468.732C360.543 469.516 359.731 470.113 358.76 470.524C357.789 470.935 356.716 471.14 355.54 471.14C354.028 471.14 352.684 470.823 351.508 470.188C350.332 469.535 349.417 468.639 348.764 467.5C348.111 466.361 347.784 465.073 347.784 463.636C347.784 462.199 348.092 460.911 348.708 459.772C349.343 458.633 350.211 457.747 351.312 457.112C352.413 456.477 353.664 456.16 355.064 456.16C356.371 456.16 357.547 456.459 358.592 457.056C359.656 457.653 360.496 458.484 361.112 459.548C361.747 460.612 362.083 461.825 362.12 463.188L350.024 465.54C350.397 466.735 351.069 467.677 352.04 468.368C353.029 469.04 354.205 469.376 355.568 469.376ZM355.064 457.868C354.037 457.868 353.113 458.111 352.292 458.596C351.489 459.063 350.855 459.725 350.388 460.584C349.94 461.424 349.716 462.395 349.716 463.496C349.716 463.776 349.725 463.981 349.744 464.112L360.132 462.096C359.908 460.864 359.339 459.856 358.424 459.072C357.509 458.269 356.389 457.868 355.064 457.868ZM368.071 459.156C368.537 458.167 369.228 457.42 370.143 456.916C371.076 456.412 372.224 456.16 373.587 456.16V458.092L373.111 458.064C371.561 458.064 370.348 458.54 369.471 459.492C368.593 460.444 368.155 461.779 368.155 463.496V471H366.167V456.272H368.071V459.156ZM390.489 456.272V471H388.585V468.088C387.988 469.077 387.195 469.833 386.205 470.356C385.235 470.879 384.133 471.14 382.901 471.14C381.52 471.14 380.269 470.823 379.149 470.188C378.029 469.553 377.152 468.667 376.517 467.528C375.883 466.389 375.565 465.092 375.565 463.636C375.565 462.18 375.883 460.883 376.517 459.744C377.152 458.605 378.029 457.728 379.149 457.112C380.269 456.477 381.52 456.16 382.901 456.16C384.096 456.16 385.169 456.412 386.121 456.916C387.092 457.401 387.885 458.12 388.501 459.072V456.272H390.489ZM383.069 469.376C384.096 469.376 385.02 469.143 385.841 468.676C386.681 468.191 387.335 467.509 387.801 466.632C388.287 465.755 388.529 464.756 388.529 463.636C388.529 462.516 388.287 461.517 387.801 460.64C387.335 459.763 386.681 459.091 385.841 458.624C385.02 458.139 384.096 457.896 383.069 457.896C382.024 457.896 381.081 458.139 380.241 458.624C379.42 459.091 378.767 459.763 378.281 460.64C377.815 461.517 377.581 462.516 377.581 463.636C377.581 464.756 377.815 465.755 378.281 466.632C378.767 467.509 379.42 468.191 380.241 468.676C381.081 469.143 382.024 469.376 383.069 469.376ZM403.614 456.16C404.995 456.16 406.246 456.477 407.366 457.112C408.486 457.728 409.363 458.605 409.998 459.744C410.633 460.883 410.95 462.18 410.95 463.636C410.95 465.111 410.633 466.417 409.998 467.556C409.363 468.695 408.486 469.581 407.366 470.216C406.265 470.832 405.014 471.14 403.614 471.14C402.419 471.14 401.337 470.897 400.366 470.412C399.414 469.908 398.63 469.18 398.014 468.228V476.432H396.026V456.272H397.93V459.184C398.527 458.213 399.311 457.467 400.282 456.944C401.271 456.421 402.382 456.16 403.614 456.16ZM403.474 469.376C404.501 469.376 405.434 469.143 406.274 468.676C407.114 468.191 407.767 467.509 408.234 466.632C408.719 465.755 408.962 464.756 408.962 463.636C408.962 462.516 408.719 461.527 408.234 460.668C407.767 459.791 407.114 459.109 406.274 458.624C405.434 458.139 404.501 457.896 403.474 457.896C402.429 457.896 401.486 458.139 400.646 458.624C399.825 459.109 399.171 459.791 398.686 460.668C398.219 461.527 397.986 462.516 397.986 463.636C397.986 464.756 398.219 465.755 398.686 466.632C399.171 467.509 399.825 468.191 400.646 468.676C401.486 469.143 402.429 469.376 403.474 469.376ZM422.59 456.16C423.972 456.16 425.222 456.477 426.342 457.112C427.462 457.728 428.34 458.605 428.974 459.744C429.609 460.883 429.926 462.18 429.926 463.636C429.926 465.111 429.609 466.417 428.974 467.556C428.34 468.695 427.462 469.581 426.342 470.216C425.241 470.832 423.99 471.14 422.59 471.14C421.396 471.14 420.313 470.897 419.342 470.412C418.39 469.908 417.606 469.18 416.99 468.228V476.432H415.002V456.272H416.906V459.184C417.504 458.213 418.288 457.467 419.258 456.944C420.248 456.421 421.358 456.16 422.59 456.16ZM422.45 469.376C423.477 469.376 424.41 469.143 425.25 468.676C426.09 468.191 426.744 467.509 427.21 466.632C427.696 465.755 427.938 464.756 427.938 463.636C427.938 462.516 427.696 461.527 427.21 460.668C426.744 459.791 426.09 459.109 425.25 458.624C424.41 458.139 423.477 457.896 422.45 457.896C421.405 457.896 420.462 458.139 419.622 458.624C418.801 459.109 418.148 459.791 417.662 460.668C417.196 461.527 416.962 462.516 416.962 463.636C416.962 464.756 417.196 465.755 417.662 466.632C418.148 467.509 418.801 468.191 419.622 468.676C420.462 469.143 421.405 469.376 422.45 469.376ZM445.843 451.764C444.984 451.764 444.331 451.997 443.883 452.464C443.454 452.931 443.239 453.621 443.239 454.536V456.272H447.775V457.952H443.295V471H441.307V454.452C441.307 453.108 441.69 452.044 442.455 451.26C443.239 450.476 444.34 450.084 445.759 450.084C446.319 450.084 446.86 450.168 447.383 450.336C447.906 450.485 448.344 450.709 448.699 451.008L448.027 452.492C447.448 452.007 446.72 451.764 445.843 451.764ZM463.739 456.272V471H461.835V468.312C461.313 469.208 460.594 469.908 459.679 470.412C458.765 470.897 457.719 471.14 456.543 471.14C454.621 471.14 453.099 470.608 451.979 469.544C450.878 468.461 450.327 466.884 450.327 464.812V456.272H452.315V464.616C452.315 466.165 452.698 467.341 453.463 468.144C454.229 468.947 455.321 469.348 456.739 469.348C458.289 469.348 459.511 468.881 460.407 467.948C461.303 466.996 461.751 465.68 461.751 464V456.272H463.739ZM454.555 453.332C454.219 453.332 453.93 453.22 453.687 452.996C453.463 452.772 453.351 452.483 453.351 452.128C453.351 451.792 453.463 451.512 453.687 451.288C453.93 451.045 454.219 450.924 454.555 450.924C454.873 450.924 455.153 451.045 455.395 451.288C455.638 451.512 455.759 451.792 455.759 452.128C455.759 452.464 455.638 452.753 455.395 452.996C455.171 453.22 454.891 453.332 454.555 453.332ZM459.539 453.332C459.203 453.332 458.914 453.22 458.671 452.996C458.447 452.753 458.335 452.464 458.335 452.128C458.335 451.792 458.457 451.512 458.699 451.288C458.942 451.045 459.222 450.924 459.539 450.924C459.875 450.924 460.155 451.045 460.379 451.288C460.622 451.512 460.743 451.792 460.743 452.128C460.743 452.483 460.622 452.772 460.379 452.996C460.155 453.22 459.875 453.332 459.539 453.332ZM471.211 459.156C471.678 458.167 472.368 457.42 473.283 456.916C474.216 456.412 475.364 456.16 476.727 456.16V458.092L476.251 458.064C474.702 458.064 473.488 458.54 472.611 459.492C471.734 460.444 471.295 461.779 471.295 463.496V471H469.307V456.272H471.211V459.156ZM501.314 450.224V471H499.41V468.088C498.812 469.077 498.019 469.833 497.03 470.356C496.059 470.879 494.958 471.14 493.726 471.14C492.344 471.14 491.094 470.823 489.974 470.188C488.854 469.553 487.976 468.667 487.342 467.528C486.707 466.389 486.39 465.092 486.39 463.636C486.39 462.18 486.707 460.883 487.342 459.744C487.976 458.605 488.854 457.728 489.974 457.112C491.094 456.477 492.344 456.16 493.726 456.16C494.92 456.16 495.994 456.412 496.946 456.916C497.916 457.401 498.71 458.12 499.326 459.072V450.224H501.314ZM493.894 469.376C494.92 469.376 495.844 469.143 496.666 468.676C497.506 468.191 498.159 467.509 498.626 466.632C499.111 465.755 499.354 464.756 499.354 463.636C499.354 462.516 499.111 461.517 498.626 460.64C498.159 459.763 497.506 459.091 496.666 458.624C495.844 458.139 494.92 457.896 493.894 457.896C492.848 457.896 491.906 458.139 491.066 458.624C490.244 459.091 489.591 459.763 489.106 460.64C488.639 461.517 488.406 462.516 488.406 463.636C488.406 464.756 488.639 465.755 489.106 466.632C489.591 467.509 490.244 468.191 491.066 468.676C491.906 469.143 492.848 469.376 493.894 469.376ZM513.15 469.376C514.065 469.376 514.905 469.217 515.67 468.9C516.454 468.564 517.117 468.079 517.658 467.444L518.778 468.732C518.125 469.516 517.313 470.113 516.342 470.524C515.371 470.935 514.298 471.14 513.122 471.14C511.61 471.14 510.266 470.823 509.09 470.188C507.914 469.535 506.999 468.639 506.346 467.5C505.693 466.361 505.366 465.073 505.366 463.636C505.366 462.199 505.674 460.911 506.29 459.772C506.925 458.633 507.793 457.747 508.894 457.112C509.995 456.477 511.246 456.16 512.646 456.16C513.953 456.16 515.129 456.459 516.174 457.056C517.238 457.653 518.078 458.484 518.694 459.548C519.329 460.612 519.665 461.825 519.702 463.188L507.606 465.54C507.979 466.735 508.651 467.677 509.622 468.368C510.611 469.04 511.787 469.376 513.15 469.376ZM512.646 457.868C511.619 457.868 510.695 458.111 509.874 458.596C509.071 459.063 508.437 459.725 507.97 460.584C507.522 461.424 507.298 462.395 507.298 463.496C507.298 463.776 507.307 463.981 507.326 464.112L517.714 462.096C517.49 460.864 516.921 459.856 516.006 459.072C515.091 458.269 513.971 457.868 512.646 457.868ZM523.749 456.272H525.737V471H523.749V456.272ZM524.757 453.052C524.346 453.052 524.001 452.912 523.721 452.632C523.441 452.352 523.301 452.016 523.301 451.624C523.301 451.251 523.441 450.924 523.721 450.644C524.001 450.364 524.346 450.224 524.757 450.224C525.167 450.224 525.513 450.364 525.793 450.644C526.073 450.905 526.213 451.223 526.213 451.596C526.213 452.007 526.073 452.352 525.793 452.632C525.513 452.912 525.167 453.052 524.757 453.052ZM538.772 456.16C540.62 456.16 542.085 456.701 543.168 457.784C544.269 458.848 544.82 460.407 544.82 462.46V471H542.832V462.656C542.832 461.125 542.449 459.959 541.684 459.156C540.919 458.353 539.827 457.952 538.408 457.952C536.821 457.952 535.561 458.428 534.628 459.38C533.713 460.313 533.256 461.611 533.256 463.272V471H531.268V456.272H533.172V458.988C533.713 458.092 534.46 457.401 535.412 456.916C536.383 456.412 537.503 456.16 538.772 456.16ZM556.572 469.376C557.487 469.376 558.327 469.217 559.092 468.9C559.876 468.564 560.539 468.079 561.08 467.444L562.2 468.732C561.547 469.516 560.735 470.113 559.764 470.524C558.793 470.935 557.72 471.14 556.544 471.14C555.032 471.14 553.688 470.823 552.512 470.188C551.336 469.535 550.421 468.639 549.768 467.5C549.115 466.361 548.788 465.073 548.788 463.636C548.788 462.199 549.096 460.911 549.712 459.772C550.347 458.633 551.215 457.747 552.316 457.112C553.417 456.477 554.668 456.16 556.068 456.16C557.375 456.16 558.551 456.459 559.596 457.056C560.66 457.653 561.5 458.484 562.116 459.548C562.751 460.612 563.087 461.825 563.124 463.188L551.028 465.54C551.401 466.735 552.073 467.677 553.044 468.368C554.033 469.04 555.209 469.376 556.572 469.376ZM556.068 457.868C555.041 457.868 554.117 458.111 553.296 458.596C552.493 459.063 551.859 459.725 551.392 460.584C550.944 461.424 550.72 462.395 550.72 463.496C550.72 463.776 550.729 463.981 550.748 464.112L561.136 462.096C560.912 460.864 560.343 459.856 559.428 459.072C558.513 458.269 557.393 457.868 556.068 457.868ZM591.215 451.4L582.535 471H580.491L571.811 451.4H574.051L581.555 468.424L589.115 451.4H591.215ZM598.818 469.376C599.733 469.376 600.573 469.217 601.338 468.9C602.122 468.564 602.785 468.079 603.326 467.444L604.446 468.732C603.793 469.516 602.981 470.113 602.01 470.524C601.039 470.935 599.966 471.14 598.79 471.14C597.278 471.14 595.934 470.823 594.758 470.188C593.582 469.535 592.667 468.639 592.014 467.5C591.361 466.361 591.034 465.073 591.034 463.636C591.034 462.199 591.342 460.911 591.958 459.772C592.593 458.633 593.461 457.747 594.562 457.112C595.663 456.477 596.914 456.16 598.314 456.16C599.621 456.16 600.797 456.459 601.842 457.056C602.906 457.653 603.746 458.484 604.362 459.548C604.997 460.612 605.333 461.825 605.37 463.188L593.274 465.54C593.647 466.735 594.319 467.677 595.29 468.368C596.279 469.04 597.455 469.376 598.818 469.376ZM598.314 457.868C597.287 457.868 596.363 458.111 595.542 458.596C594.739 459.063 594.105 459.725 593.638 460.584C593.19 461.424 592.966 462.395 592.966 463.496C592.966 463.776 592.975 463.981 592.994 464.112L603.382 462.096C603.158 460.864 602.589 459.856 601.674 459.072C600.759 458.269 599.639 457.868 598.314 457.868ZM611.321 459.156C611.787 458.167 612.478 457.42 613.393 456.916C614.326 456.412 615.474 456.16 616.837 456.16V458.092L616.361 458.064C614.811 458.064 613.598 458.54 612.721 459.492C611.843 460.444 611.405 461.779 611.405 463.496V471H609.417V456.272H611.321V459.156ZM633.739 456.272V471H631.835V468.088C631.238 469.077 630.445 469.833 629.455 470.356C628.485 470.879 627.383 471.14 626.151 471.14C624.77 471.14 623.519 470.823 622.399 470.188C621.279 469.553 620.402 468.667 619.767 467.528C619.133 466.389 618.815 465.092 618.815 463.636C618.815 462.18 619.133 460.883 619.767 459.744C620.402 458.605 621.279 457.728 622.399 457.112C623.519 456.477 624.77 456.16 626.151 456.16C627.346 456.16 628.419 456.412 629.371 456.916C630.342 457.401 631.135 458.12 631.751 459.072V456.272H633.739ZM626.319 469.376C627.346 469.376 628.27 469.143 629.091 468.676C629.931 468.191 630.585 467.509 631.051 466.632C631.537 465.755 631.779 464.756 631.779 463.636C631.779 462.516 631.537 461.517 631.051 460.64C630.585 459.763 629.931 459.091 629.091 458.624C628.27 458.139 627.346 457.896 626.319 457.896C625.274 457.896 624.331 458.139 623.491 458.624C622.67 459.091 622.017 459.763 621.531 460.64C621.065 461.517 620.831 462.516 620.831 463.636C620.831 464.756 621.065 465.755 621.531 466.632C622.017 467.509 622.67 468.191 623.491 468.676C624.331 469.143 625.274 469.376 626.319 469.376ZM646.78 456.16C648.628 456.16 650.093 456.701 651.176 457.784C652.277 458.848 652.828 460.407 652.828 462.46V471H650.84V462.656C650.84 461.125 650.457 459.959 649.692 459.156C648.927 458.353 647.835 457.952 646.416 457.952C644.829 457.952 643.569 458.428 642.636 459.38C641.721 460.313 641.264 461.611 641.264 463.272V471H639.276V456.272H641.18V458.988C641.721 458.092 642.468 457.401 643.42 456.916C644.391 456.412 645.511 456.16 646.78 456.16ZM662.173 471.14C660.978 471.14 659.83 470.972 658.729 470.636C657.646 470.281 656.797 469.843 656.181 469.32L657.077 467.752C657.693 468.237 658.468 468.639 659.401 468.956C660.334 469.255 661.305 469.404 662.313 469.404C663.657 469.404 664.646 469.199 665.281 468.788C665.934 468.359 666.261 467.761 666.261 466.996C666.261 466.455 666.084 466.035 665.729 465.736C665.374 465.419 664.926 465.185 664.385 465.036C663.844 464.868 663.125 464.709 662.229 464.56C661.034 464.336 660.073 464.112 659.345 463.888C658.617 463.645 657.992 463.244 657.469 462.684C656.965 462.124 656.713 461.349 656.713 460.36C656.713 459.128 657.226 458.12 658.253 457.336C659.28 456.552 660.708 456.16 662.537 456.16C663.489 456.16 664.441 456.291 665.393 456.552C666.345 456.795 667.129 457.121 667.745 457.532L666.877 459.128C665.664 458.288 664.217 457.868 662.537 457.868C661.268 457.868 660.306 458.092 659.653 458.54C659.018 458.988 658.701 459.576 658.701 460.304C658.701 460.864 658.878 461.312 659.233 461.648C659.606 461.984 660.064 462.236 660.605 462.404C661.146 462.553 661.893 462.712 662.845 462.88C664.021 463.104 664.964 463.328 665.673 463.552C666.382 463.776 666.989 464.159 667.493 464.7C667.997 465.241 668.249 465.988 668.249 466.94C668.249 468.228 667.708 469.255 666.625 470.02C665.561 470.767 664.077 471.14 662.173 471.14ZM679.176 470.104C678.803 470.44 678.346 470.701 677.804 470.888C677.263 471.056 676.694 471.14 676.096 471.14C674.715 471.14 673.651 470.767 672.904 470.02C672.158 469.273 671.784 468.219 671.784 466.856V453.052H673.772V456.272H678.224V457.952H673.772V466.744C673.772 467.621 673.987 468.293 674.416 468.76C674.846 469.208 675.471 469.432 676.292 469.432C677.188 469.432 677.916 469.18 678.476 468.676L679.176 470.104ZM695.7 456.272V471H693.796V468.088C693.199 469.077 692.406 469.833 691.416 470.356C690.446 470.879 689.344 471.14 688.112 471.14C686.731 471.14 685.48 470.823 684.36 470.188C683.24 469.553 682.363 468.667 681.728 467.528C681.094 466.389 680.776 465.092 680.776 463.636C680.776 462.18 681.094 460.883 681.728 459.744C682.363 458.605 683.24 457.728 684.36 457.112C685.48 456.477 686.731 456.16 688.112 456.16C689.307 456.16 690.38 456.412 691.332 456.916C692.303 457.401 693.096 458.12 693.712 459.072V456.272H695.7ZM688.28 469.376C689.307 469.376 690.231 469.143 691.052 468.676C691.892 468.191 692.546 467.509 693.012 466.632C693.498 465.755 693.74 464.756 693.74 463.636C693.74 462.516 693.498 461.517 693.012 460.64C692.546 459.763 691.892 459.091 691.052 458.624C690.231 458.139 689.307 457.896 688.28 457.896C687.235 457.896 686.292 458.139 685.452 458.624C684.631 459.091 683.978 459.763 683.492 460.64C683.026 461.517 682.792 462.516 682.792 463.636C682.792 464.756 683.026 465.755 683.492 466.632C683.978 467.509 684.631 468.191 685.452 468.676C686.292 469.143 687.235 469.376 688.28 469.376ZM705.381 471.14C704.056 471.14 703.029 470.767 702.301 470.02C701.592 469.273 701.237 468.237 701.237 466.912V450.224H703.225V466.744C703.225 467.621 703.43 468.293 703.841 468.76C704.252 469.208 704.868 469.432 705.689 469.432C706.212 469.432 706.66 469.348 707.033 469.18L707.173 470.832C706.594 471.037 705.997 471.14 705.381 471.14ZM717.129 470.104C716.756 470.44 716.299 470.701 715.757 470.888C715.216 471.056 714.647 471.14 714.049 471.14C712.668 471.14 711.604 470.767 710.857 470.02C710.111 469.273 709.737 468.219 709.737 466.856V453.052H711.725V456.272H716.177V457.952H711.725V466.744C711.725 467.621 711.94 468.293 712.369 468.76C712.799 469.208 713.424 469.432 714.245 469.432C715.141 469.432 715.869 469.18 716.429 468.676L717.129 470.104ZM734.005 456.272V471H732.101V468.312C731.578 469.208 730.86 469.908 729.945 470.412C729.03 470.897 727.985 471.14 726.809 471.14C724.886 471.14 723.365 470.608 722.245 469.544C721.144 468.461 720.593 466.884 720.593 464.812V456.272H722.581V464.616C722.581 466.165 722.964 467.341 723.729 468.144C724.494 468.947 725.586 469.348 727.005 469.348C728.554 469.348 729.777 468.881 730.673 467.948C731.569 466.996 732.017 465.68 732.017 464V456.272H734.005ZM747.077 456.16C748.925 456.16 750.39 456.701 751.473 457.784C752.574 458.848 753.125 460.407 753.125 462.46V471H751.137V462.656C751.137 461.125 750.754 459.959 749.989 459.156C749.223 458.353 748.131 457.952 746.713 457.952C745.126 457.952 743.866 458.428 742.933 459.38C742.018 460.313 741.561 461.611 741.561 463.272V471H739.573V456.272H741.477V458.988C742.018 458.092 742.765 457.401 743.717 456.916C744.687 456.412 745.807 456.16 747.077 456.16ZM772.213 456.272V469.208C772.213 471.709 771.597 473.557 770.365 474.752C769.151 475.965 767.313 476.572 764.849 476.572C763.486 476.572 762.189 476.367 760.957 475.956C759.743 475.564 758.754 475.013 757.989 474.304L758.997 472.792C759.706 473.427 760.565 473.921 761.573 474.276C762.599 474.631 763.673 474.808 764.793 474.808C766.659 474.808 768.031 474.369 768.909 473.492C769.786 472.633 770.225 471.289 770.225 469.46V467.584C769.609 468.517 768.797 469.227 767.789 469.712C766.799 470.197 765.698 470.44 764.485 470.44C763.103 470.44 761.843 470.141 760.705 469.544C759.585 468.928 758.698 468.079 758.045 466.996C757.41 465.895 757.093 464.653 757.093 463.272C757.093 461.891 757.41 460.659 758.045 459.576C758.698 458.493 759.585 457.653 760.705 457.056C761.825 456.459 763.085 456.16 764.485 456.16C765.735 456.16 766.865 456.412 767.873 456.916C768.881 457.42 769.693 458.148 770.309 459.1V456.272H772.213ZM764.681 468.676C765.745 468.676 766.706 468.452 767.565 468.004C768.423 467.537 769.086 466.893 769.553 466.072C770.038 465.251 770.281 464.317 770.281 463.272C770.281 462.227 770.038 461.303 769.553 460.5C769.086 459.679 768.423 459.044 767.565 458.596C766.725 458.129 765.763 457.896 764.681 457.896C763.617 457.896 762.655 458.12 761.797 458.568C760.957 459.016 760.294 459.651 759.809 460.472C759.342 461.293 759.109 462.227 759.109 463.272C759.109 464.317 759.342 465.251 759.809 466.072C760.294 466.893 760.957 467.537 761.797 468.004C762.655 468.452 763.617 468.676 764.681 468.676ZM784.072 469.376C784.987 469.376 785.827 469.217 786.592 468.9C787.376 468.564 788.039 468.079 788.58 467.444L789.7 468.732C789.047 469.516 788.235 470.113 787.264 470.524C786.293 470.935 785.22 471.14 784.044 471.14C782.532 471.14 781.188 470.823 780.012 470.188C778.836 469.535 777.921 468.639 777.268 467.5C776.615 466.361 776.288 465.073 776.288 463.636C776.288 462.199 776.596 460.911 777.212 459.772C777.847 458.633 778.715 457.747 779.816 457.112C780.917 456.477 782.168 456.16 783.568 456.16C784.875 456.16 786.051 456.459 787.096 457.056C788.16 457.653 789 458.484 789.616 459.548C790.251 460.612 790.587 461.825 790.624 463.188L778.528 465.54C778.901 466.735 779.573 467.677 780.544 468.368C781.533 469.04 782.709 469.376 784.072 469.376ZM783.568 457.868C782.541 457.868 781.617 458.111 780.796 458.596C779.993 459.063 779.359 459.725 778.892 460.584C778.444 461.424 778.22 462.395 778.22 463.496C778.22 463.776 778.229 463.981 778.248 464.112L788.636 462.096C788.412 460.864 787.843 459.856 786.928 459.072C786.013 458.269 784.893 457.868 783.568 457.868ZM802.174 456.16C804.022 456.16 805.488 456.701 806.57 457.784C807.672 458.848 808.222 460.407 808.222 462.46V471H806.234V462.656C806.234 461.125 805.852 459.959 805.086 459.156C804.321 458.353 803.229 457.952 801.81 457.952C800.224 457.952 798.964 458.428 798.03 459.38C797.116 460.313 796.658 461.611 796.658 463.272V471H794.67V456.272H796.574V458.988C797.116 458.092 797.862 457.401 798.814 456.916C799.785 456.412 800.905 456.16 802.174 456.16ZM813.816 471.14C813.405 471.14 813.05 470.991 812.752 470.692C812.472 470.393 812.332 470.029 812.332 469.6C812.332 469.171 812.472 468.816 812.752 468.536C813.05 468.237 813.405 468.088 813.816 468.088C814.226 468.088 814.581 468.237 814.88 468.536C815.178 468.816 815.328 469.171 815.328 469.6C815.328 470.029 815.178 470.393 814.88 470.692C814.581 470.991 814.226 471.14 813.816 471.14Z" fill="#FFD7B8"/>
<defs>
<linearGradient id="paint0_linear_109_767" x1="1257.97" y1="272.681" x2="966.28" y2="274.21" gradientUnits="userSpaceOnUse">
<stop stop-color="#DFE4FB"/>
<stop offset="1" stop-color="#C8D1F9"/>
</linearGradient>
<linearGradient id="paint1_linear_109_767" x1="114" y1="247" x2="511.242" y2="247" gradientUnits="userSpaceOnUse">
<stop stop-color="#C8D1F9"/>
<stop offset="1" stop-color="white"/>
</linearGradient>
<clipPath id="clip0_109_767">
<rect width="483" height="483" fill="white" transform="translate(885 32)"/>
</clipPath>
</defs>
</svg>
